<svg width="512" height="512" viewBox="0 0 680 680" xmlns="http://www.w3.org/2000/svg">
  <rect width="680" height="680" rx="120" fill="#C1673A"/>
  <rect x="40" y="40" width="600" height="600" rx="100" fill="#9E4E28" opacity="0.3"/>
  <rect x="60" y="60" width="560" height="560" rx="80" fill="none" stroke="#E8A07A" stroke-width="3" opacity="0.4"/>
  <g transform="translate(340, 340)">
    <path d="
      M -110 -240
      L -110 240
      L 60 240
      C 160 240 200 180 200 120
      C 200 70 170 30 120 10
      C 165 -10 190 -55 190 -110
      C 190 -175 150 -240 50 -240
      Z
      M -30 -160
      L 40 -160
      C 90 -160 110 -130 110 -100
      C 110 -65 88 -40 40 -40
      L -30 -40
      Z
      M -30 40
      L 65 40
      C 118 40 118 80 118 110
      C 118 148 95 160 55 160
      L -30 160
      Z
    " fill="#F2E8D9"/>
  </g>
  <circle cx="340" cy="580" r="18" fill="#2A8A8A" opacity="0.7"/>
  <circle cx="310" cy="578" r="10" fill="#2A8A8A" opacity="0.4"/>
  <circle cx="370" cy="578" r="10" fill="#2A8A8A" opacity="0.4"/>
</svg>